# xmcd
#
# Track frame offsets:
#	150
#	18852
#	33335
#	49032
#	66567
#	83445
#	91367
#	105895
#	119370
#	131732
#	141250
#	159320
#	171517
#	181737
#
# Disc length: 2731 seconds
# Revision: 13
# Processed by: cddbd v1.5.2PL0 Copyright (c) Steve Scherf et al.
# Submitted via: dBpowerAMP V12.0
#
DISCID=b00aa90e
DTITLE=Various Artist - Johnny Cash At San Quentin
DYEAR=2006
DGENRE=Country
TTITLE0=Johnny Cash - San Quentin
TTITLE1=Johnny Cash - San Quentin
TTITLE2=Johnny Cash - Wanted Man
TTITLE3=Johnny Cash - Restless
TTITLE4=Johnny Cash - A Boy Named Sue
TTITLE5=Johnny Cash - Blistered
TTITLE6=Johnny Cash - (There'll Be) Peace in the Valley
TTITLE7=Carl Perkins - The Outside Looking In
TTITLE8=The Statler Brothers - Less of Me
TTITLE9=Johnny Cash with the Carter Family - Ring of Fire
TTITLE10=Johnny Cash - He Turned the Water into Wine
TTITLE11=Johnny Cash - Daddy Sang Bass
TTITLE12=Johnny Cash - The Old Account Was Settled Long Ago
TTITLE13=Johnny Cash - Closing Medley - Folsom Prison Blues • I Walk the Line • Ring of Fire • The Rebel-Johnny Yuma
EXTD=
EXTT0=
EXTT1=
EXTT2=
EXTT3=
EXTT4=
EXTT5=
EXTT6=
EXTT7=
EXTT8=
EXTT9=
EXTT10=
EXTT11=
EXTT12=
EXTT13=
PLAYORDER=
